<svg width="600" height="600" viewBox="0 0 600 600" fill="none" xmlns="http://www.w3.org/2000/svg">
<rect width="600" height="600" fill="white"/>
<g filter="url(#filter0_iiiiiii_78_14)">
<circle cx="300" cy="300" r="170" fill="#632D92"/>
</g>
<path d="M204.754 512V491.595H218.289V494.144H207.61V500.325H216.912V502.874H207.61V509.451H218.289V512H204.754ZM222.537 512V496.707H225.232V499.227C225.652 498.328 226.229 497.625 226.961 497.117C227.693 496.6 228.641 496.341 229.803 496.341C230.545 496.341 231.219 496.443 231.824 496.648C232.43 496.844 232.952 497.161 233.392 497.601C233.831 498.04 234.173 498.606 234.417 499.3C234.661 499.983 234.783 500.818 234.783 501.805V512H232.073V502.098C232.073 500.975 231.858 500.096 231.429 499.461C230.999 498.816 230.203 498.494 229.041 498.494C228.484 498.494 227.977 498.606 227.518 498.831C227.059 499.046 226.658 499.358 226.316 499.769C225.975 500.179 225.706 500.667 225.511 501.233C225.325 501.79 225.232 502.4 225.232 503.064V512H222.537ZM238.182 499.007V496.707H240.76V491.595H243.426V496.707H246.941V499.007H243.426V509.686H246.941V512H240.76V499.007H238.182ZM250.691 512V496.707H258.045V499.036H253.387V512H250.691ZM259.817 496.707H262.732L266.717 508.675H266.849L270.95 496.707H273.748L266.248 517.098H261.019V514.783H264.534L265.501 512L259.817 496.707ZM285.115 512V491.595H298.65V494.144H287.972V500.325H297.273V502.874H287.972V509.451H298.65V512H285.115ZM301.185 512L306.443 504.075L301.639 496.707H304.642L307.996 502.039L311.424 496.707H314.354L309.563 503.899L314.866 512H311.834L307.996 505.936L304.188 512H301.185ZM318.133 517.098V496.707H320.828V499.197C321.307 498.279 321.951 497.576 322.762 497.088C323.572 496.59 324.559 496.341 325.721 496.341C326.736 496.341 327.625 496.551 328.387 496.971C329.148 497.391 329.778 497.962 330.276 498.685C330.784 499.397 331.16 500.247 331.404 501.233C331.658 502.21 331.785 503.25 331.785 504.354C331.785 505.477 331.658 506.521 331.404 507.488C331.16 508.455 330.784 509.3 330.276 510.022C329.778 510.745 329.148 511.316 328.387 511.736C327.635 512.156 326.746 512.366 325.721 512.366C324.559 512.366 323.572 512.122 322.762 511.634C321.951 511.136 321.307 510.428 320.828 509.51V517.098H318.133ZM320.828 505.643C320.828 506.961 321.189 508.05 321.912 508.909C322.635 509.769 323.675 510.198 325.032 510.198C326.175 510.198 327.107 509.881 327.83 509.246C328.562 508.602 328.929 507.762 328.929 506.727V501.98C328.929 500.945 328.562 500.105 327.83 499.461C327.107 498.816 326.175 498.494 325.032 498.494C323.675 498.494 322.635 498.929 321.912 499.798C321.189 500.657 320.828 501.746 320.828 503.064V505.643ZM336.033 512V491.595H338.729V512H336.033ZM342.962 504.354C342.962 503.191 343.099 502.117 343.372 501.131C343.655 500.135 344.08 499.29 344.646 498.597C345.223 497.894 345.94 497.342 346.8 496.941C347.659 496.541 348.67 496.341 349.832 496.341C350.994 496.341 352.005 496.541 352.864 496.941C353.724 497.342 354.437 497.894 355.003 498.597C355.569 499.29 355.994 500.135 356.277 501.131C356.561 502.117 356.702 503.191 356.702 504.354C356.702 505.535 356.561 506.614 356.277 507.591C355.994 508.567 355.569 509.407 355.003 510.11C354.437 510.813 353.719 511.365 352.85 511.766C351.99 512.166 350.984 512.366 349.832 512.366C348.67 512.366 347.659 512.166 346.8 511.766C345.94 511.365 345.223 510.813 344.646 510.11C344.08 509.407 343.655 508.567 343.372 507.591C343.099 506.614 342.962 505.535 342.962 504.354ZM345.804 506.727C345.804 507.244 345.911 507.718 346.126 508.147C346.351 508.577 346.644 508.943 347.005 509.246C347.366 509.539 347.791 509.773 348.279 509.949C348.768 510.115 349.285 510.198 349.832 510.198C350.369 510.198 350.882 510.115 351.37 509.949C351.858 509.773 352.283 509.539 352.645 509.246C353.006 508.943 353.294 508.577 353.509 508.147C353.733 507.718 353.846 507.244 353.846 506.727V501.98C353.846 501.463 353.733 500.989 353.509 500.56C353.294 500.13 353.006 499.764 352.645 499.461C352.283 499.158 351.858 498.924 351.37 498.758C350.882 498.582 350.369 498.494 349.832 498.494C349.295 498.494 348.777 498.582 348.279 498.758C347.791 498.924 347.366 499.158 347.005 499.461C346.644 499.764 346.351 500.13 346.126 500.56C345.911 500.989 345.804 501.463 345.804 501.98V506.727ZM360.877 512V496.707H368.23V499.036H363.572V512H360.877ZM370.794 504.354C370.794 503.191 370.936 502.117 371.219 501.131C371.512 500.135 371.941 499.29 372.508 498.597C373.084 497.894 373.777 497.342 374.588 496.941C375.398 496.541 376.331 496.341 377.386 496.341C378.489 496.341 379.451 496.531 380.271 496.912C381.092 497.293 381.771 497.815 382.308 498.479C382.845 499.134 383.25 499.905 383.523 500.794C383.797 501.683 383.934 502.64 383.934 503.665V505.101H373.636V506.727C373.636 507.283 373.738 507.776 373.943 508.206C374.158 508.636 374.446 509.002 374.808 509.305C375.169 509.598 375.574 509.822 376.023 509.979C376.473 510.125 376.937 510.198 377.415 510.198C378.372 510.198 379.202 509.954 379.905 509.466C380.608 508.978 381.009 508.201 381.106 507.137H383.816C383.758 507.957 383.543 508.689 383.172 509.334C382.801 509.969 382.317 510.511 381.722 510.96C381.136 511.409 380.472 511.756 379.729 512C378.987 512.244 378.206 512.366 377.386 512.366C376.282 512.366 375.315 512.166 374.485 511.766C373.665 511.365 372.977 510.813 372.42 510.11C371.873 509.407 371.463 508.567 371.189 507.591C370.926 506.614 370.794 505.535 370.794 504.354ZM373.636 502.947H381.136V502.098C381.136 501.541 381.033 501.038 380.828 500.589C380.633 500.14 380.359 499.759 380.008 499.446C379.666 499.134 379.266 498.899 378.807 498.743C378.357 498.577 377.884 498.494 377.386 498.494C376.888 498.494 376.414 498.577 375.965 498.743C375.516 498.899 375.115 499.134 374.764 499.446C374.412 499.759 374.134 500.14 373.929 500.589C373.733 501.038 373.636 501.541 373.636 502.098V502.947ZM388.035 512V496.707H395.389V499.036H390.73V512H388.035Z" fill="black"/>
<path d="M365.812 265.438L322.063 221.688C321.184 220.808 319.993 220.314 318.75 220.312H243.75C240.849 220.312 238.067 221.465 236.016 223.516C233.965 225.567 232.812 228.349 232.812 231.25V368.75C232.812 371.651 233.965 374.433 236.016 376.484C238.067 378.535 240.849 379.688 243.75 379.688H356.25C359.151 379.688 361.933 378.535 363.984 376.484C366.035 374.433 367.188 371.651 367.188 368.75V268.75C367.186 267.507 366.692 266.316 365.812 265.438ZM323.438 236.312L351.188 264.062H323.438V236.312ZM356.25 370.312H243.75C243.336 370.312 242.938 370.148 242.645 369.855C242.352 369.562 242.188 369.164 242.188 368.75V231.25C242.188 230.836 242.352 230.438 242.645 230.145C242.938 229.852 243.336 229.688 243.75 229.688H314.062V268.75C314.062 269.993 314.556 271.185 315.435 272.065C316.315 272.944 317.507 273.438 318.75 273.438H357.812V368.75C357.812 369.164 357.648 369.562 357.355 369.855C357.062 370.148 356.664 370.312 356.25 370.312ZM318.664 330.789C322.464 325.334 324.083 318.653 323.203 312.064C322.323 305.474 319.007 299.453 313.909 295.186C308.811 290.919 302.3 288.716 295.658 289.01C289.017 289.304 282.726 292.074 278.025 296.775C273.324 301.476 270.554 307.767 270.26 314.408C269.966 321.05 272.169 327.561 276.436 332.659C280.703 337.757 286.724 341.073 293.314 341.953C299.903 342.833 306.584 341.214 312.039 337.414L321.687 347.063C322.576 347.891 323.751 348.341 324.966 348.32C326.18 348.298 327.339 347.806 328.198 346.948C329.056 346.089 329.548 344.93 329.57 343.716C329.591 342.501 329.141 341.326 328.313 340.437L318.664 330.789ZM279.688 315.625C279.688 312.226 280.696 308.903 282.584 306.076C284.473 303.25 287.157 301.047 290.298 299.746C293.438 298.445 296.894 298.105 300.228 298.768C303.562 299.431 306.625 301.068 309.028 303.472C311.432 305.875 313.069 308.938 313.732 312.272C314.395 315.606 314.055 319.062 312.754 322.202C311.453 325.343 309.25 328.027 306.424 329.916C303.597 331.804 300.274 332.812 296.875 332.812C292.317 332.812 287.945 331.002 284.722 327.778C281.498 324.555 279.688 320.183 279.688 315.625Z" fill="white"/>
<defs>
<filter id="filter0_iiiiiii_78_14" x="130" y="130" width="348" height="348" filterUnits="userSpaceOnUse" color-interpolation-filters="sRGB">
<feFlood flood-opacity="0" result="BackgroundImageFix"/>
<feBlend mode="normal" in="SourceGraphic" in2="BackgroundImageFix" result="shape"/>
<feColorMatrix in="SourceAlpha" type="matrix" values="0 0 0 0 0 0 0 0 0 0 0 0 0 0 0 0 0 0 127 0" result="hardAlpha"/>
<feOffset dx="8" dy="8"/>
<feGaussianBlur stdDeviation="4"/>
<feComposite in2="hardAlpha" operator="arithmetic" k2="-1" k3="1"/>
<feColorMatrix type="matrix" values="0 0 0 0 1 0 0 0 0 1 0 0 0 0 1 0 0 0 0.25 0"/>
<feBlend mode="normal" in2="shape" result="effect1_innerShadow_78_14"/>
<feColorMatrix in="SourceAlpha" type="matrix" values="0 0 0 0 0 0 0 0 0 0 0 0 0 0 0 0 0 0 127 0" result="hardAlpha"/>
<feOffset dx="4" dy="4"/>
<feGaussianBlur stdDeviation="3.5"/>
<feComposite in2="hardAlpha" operator="arithmetic" k2="-1" k3="1"/>
<feColorMatrix type="matrix" values="0 0 0 0 1 0 0 0 0 1 0 0 0 0 1 0 0 0 0.78 0"/>
<feBlend mode="normal" in2="effect1_innerShadow_78_14" result="effect2_innerShadow_78_14"/>
<feColorMatrix in="SourceAlpha" type="matrix" values="0 0 0 0 0 0 0 0 0 0 0 0 0 0 0 0 0 0 127 0" result="hardAlpha"/>
<feOffset dx="6" dy="6"/>
<feGaussianBlur stdDeviation="4"/>
<feComposite in2="hardAlpha" operator="arithmetic" k2="-1" k3="1"/>
<feColorMatrix type="matrix" values="0 0 0 0 0.600977 0 0 0 0 0.586451 0 0 0 0 0.586451 0 0 0 0.25 0"/>
<feBlend mode="normal" in2="effect2_innerShadow_78_14" result="effect3_innerShadow_78_14"/>
<feColorMatrix in="SourceAlpha" type="matrix" values="0 0 0 0 0 0 0 0 0 0 0 0 0 0 0 0 0 0 127 0" result="hardAlpha"/>
<feOffset dx="4" dy="4"/>
<feGaussianBlur stdDeviation="2"/>
<feComposite in2="hardAlpha" operator="arithmetic" k2="-1" k3="1"/>
<feColorMatrix type="matrix" values="0 0 0 0 1 0 0 0 0 1 0 0 0 0 1 0 0 0 1 0"/>
<feBlend mode="normal" in2="effect3_innerShadow_78_14" result="effect4_innerShadow_78_14"/>
<feColorMatrix in="SourceAlpha" type="matrix" values="0 0 0 0 0 0 0 0 0 0 0 0 0 0 0 0 0 0 127 0" result="hardAlpha"/>
<feOffset dx="6" dy="6"/>
<feGaussianBlur stdDeviation="2"/>
<feComposite in2="hardAlpha" operator="arithmetic" k2="-1" k3="1"/>
<feColorMatrix type="matrix" values="0 0 0 0 0.388235 0 0 0 0 0.176471 0 0 0 0 0.572549 0 0 0 0.5 0"/>
<feBlend mode="normal" in2="effect4_innerShadow_78_14" result="effect5_innerShadow_78_14"/>
<feColorMatrix in="SourceAlpha" type="matrix" values="0 0 0 0 0 0 0 0 0 0 0 0 0 0 0 0 0 0 127 0" result="hardAlpha"/>
<feMorphology radius="2" operator="erode" in="SourceAlpha" result="effect6_innerShadow_78_14"/>
<feOffset dx="6" dy="6"/>
<feGaussianBlur stdDeviation="3"/>
<feComposite in2="hardAlpha" operator="arithmetic" k2="-1" k3="1"/>
<feColorMatrix type="matrix" values="0 0 0 0 0.388235 0 0 0 0 0.176471 0 0 0 0 0.572549 0 0 0 0.25 0"/>
<feBlend mode="normal" in2="effect5_innerShadow_78_14" result="effect6_innerShadow_78_14"/>
<feColorMatrix in="SourceAlpha" type="matrix" values="0 0 0 0 0 0 0 0 0 0 0 0 0 0 0 0 0 0 127 0" result="hardAlpha"/>
<feOffset dx="8" dy="8"/>
<feGaussianBlur stdDeviation="4"/>
<feComposite in2="hardAlpha" operator="arithmetic" k2="-1" k3="1"/>
<feColorMatrix type="matrix" values="0 0 0 0 0.388235 0 0 0 0 0.176471 0 0 0 0 0.572549 0 0 0 0.5 0"/>
<feBlend mode="normal" in2="effect6_innerShadow_78_14" result="effect7_innerShadow_78_14"/>
</filter>
</defs>
</svg>
