<svg width="340" height="340" viewBox="0 0 340 340" fill="none" xmlns="http://www.w3.org/2000/svg">
<g filter="url(#filter0_iiiiiii_0_1)">
<circle cx="170" cy="170" r="170" fill="#632D92"/>
</g>
<path d="M235.812 135.438L192.063 91.6875C191.184 90.8082 189.993 90.3136 188.75 90.3125H113.75C110.849 90.3125 108.067 91.4648 106.016 93.516C103.965 95.5672 102.812 98.3492 102.812 101.25V238.75C102.812 241.651 103.965 244.433 106.016 246.484C108.067 248.535 110.849 249.688 113.75 249.688H226.25C229.151 249.688 231.933 248.535 233.984 246.484C236.035 244.433 237.188 241.651 237.188 238.75V138.75C237.186 137.507 236.692 136.316 235.812 135.438ZM193.438 106.312L221.188 134.062H193.438V106.312ZM226.25 240.312H113.75C113.336 240.312 112.938 240.148 112.645 239.855C112.352 239.562 112.188 239.164 112.188 238.75V101.25C112.188 100.836 112.352 100.438 112.645 100.145C112.938 99.8521 113.336 99.6875 113.75 99.6875H184.062V138.75C184.062 139.993 184.556 141.185 185.435 142.065C186.315 142.944 187.507 143.438 188.75 143.438H227.812V238.75C227.812 239.164 227.648 239.562 227.355 239.855C227.062 240.148 226.664 240.312 226.25 240.312ZM188.664 200.789C192.464 195.334 194.083 188.653 193.203 182.064C192.323 175.474 189.007 169.453 183.909 165.186C178.811 160.919 172.3 158.716 165.658 159.01C159.017 159.304 152.726 162.074 148.025 166.775C143.324 171.476 140.554 177.767 140.26 184.408C139.966 191.05 142.169 197.561 146.436 202.659C150.703 207.757 156.724 211.073 163.314 211.953C169.903 212.833 176.584 211.214 182.039 207.414L191.687 217.063C192.576 217.891 193.751 218.341 194.966 218.32C196.18 218.298 197.339 217.806 198.198 216.948C199.056 216.089 199.548 214.93 199.57 213.716C199.591 212.501 199.141 211.326 198.313 210.437L188.664 200.789ZM149.688 185.625C149.688 182.226 150.696 178.903 152.584 176.076C154.473 173.25 157.157 171.047 160.298 169.746C163.438 168.445 166.894 168.105 170.228 168.768C173.562 169.431 176.625 171.068 179.028 173.472C181.432 175.875 183.069 178.938 183.732 182.272C184.395 185.606 184.055 189.062 182.754 192.202C181.453 195.343 179.25 198.027 176.424 199.916C173.597 201.804 170.274 202.812 166.875 202.812C162.317 202.812 157.945 201.002 154.722 197.778C151.498 194.555 149.688 190.183 149.688 185.625Z" fill="white"/>
<defs>
<filter id="filter0_iiiiiii_0_1" x="0" y="0" width="348" height="348" filterUnits="userSpaceOnUse" color-interpolation-filters="sRGB">
<feFlood flood-opacity="0" result="BackgroundImageFix"/>
<feBlend mode="normal" in="SourceGraphic" in2="BackgroundImageFix" result="shape"/>
<feColorMatrix in="SourceAlpha" type="matrix" values="0 0 0 0 0 0 0 0 0 0 0 0 0 0 0 0 0 0 127 0" result="hardAlpha"/>
<feOffset dx="8" dy="8"/>
<feGaussianBlur stdDeviation="4"/>
<feComposite in2="hardAlpha" operator="arithmetic" k2="-1" k3="1"/>
<feColorMatrix type="matrix" values="0 0 0 0 1 0 0 0 0 1 0 0 0 0 1 0 0 0 0.25 0"/>
<feBlend mode="normal" in2="shape" result="effect1_innerShadow_0_1"/>
<feColorMatrix in="SourceAlpha" type="matrix" values="0 0 0 0 0 0 0 0 0 0 0 0 0 0 0 0 0 0 127 0" result="hardAlpha"/>
<feOffset dx="4" dy="4"/>
<feGaussianBlur stdDeviation="3.5"/>
<feComposite in2="hardAlpha" operator="arithmetic" k2="-1" k3="1"/>
<feColorMatrix type="matrix" values="0 0 0 0 1 0 0 0 0 1 0 0 0 0 1 0 0 0 0.78 0"/>
<feBlend mode="normal" in2="effect1_innerShadow_0_1" result="effect2_innerShadow_0_1"/>
<feColorMatrix in="SourceAlpha" type="matrix" values="0 0 0 0 0 0 0 0 0 0 0 0 0 0 0 0 0 0 127 0" result="hardAlpha"/>
<feOffset dx="6" dy="6"/>
<feGaussianBlur stdDeviation="4"/>
<feComposite in2="hardAlpha" operator="arithmetic" k2="-1" k3="1"/>
<feColorMatrix type="matrix" values="0 0 0 0 0.600977 0 0 0 0 0.586451 0 0 0 0 0.586451 0 0 0 0.25 0"/>
<feBlend mode="normal" in2="effect2_innerShadow_0_1" result="effect3_innerShadow_0_1"/>
<feColorMatrix in="SourceAlpha" type="matrix" values="0 0 0 0 0 0 0 0 0 0 0 0 0 0 0 0 0 0 127 0" result="hardAlpha"/>
<feOffset dx="4" dy="4"/>
<feGaussianBlur stdDeviation="2"/>
<feComposite in2="hardAlpha" operator="arithmetic" k2="-1" k3="1"/>
<feColorMatrix type="matrix" values="0 0 0 0 1 0 0 0 0 1 0 0 0 0 1 0 0 0 1 0"/>
<feBlend mode="normal" in2="effect3_innerShadow_0_1" result="effect4_innerShadow_0_1"/>
<feColorMatrix in="SourceAlpha" type="matrix" values="0 0 0 0 0 0 0 0 0 0 0 0 0 0 0 0 0 0 127 0" result="hardAlpha"/>
<feOffset dx="6" dy="6"/>
<feGaussianBlur stdDeviation="2"/>
<feComposite in2="hardAlpha" operator="arithmetic" k2="-1" k3="1"/>
<feColorMatrix type="matrix" values="0 0 0 0 0.388235 0 0 0 0 0.176471 0 0 0 0 0.572549 0 0 0 0.5 0"/>
<feBlend mode="normal" in2="effect4_innerShadow_0_1" result="effect5_innerShadow_0_1"/>
<feColorMatrix in="SourceAlpha" type="matrix" values="0 0 0 0 0 0 0 0 0 0 0 0 0 0 0 0 0 0 127 0" result="hardAlpha"/>
<feMorphology radius="2" operator="erode" in="SourceAlpha" result="effect6_innerShadow_0_1"/>
<feOffset dx="6" dy="6"/>
<feGaussianBlur stdDeviation="3"/>
<feComposite in2="hardAlpha" operator="arithmetic" k2="-1" k3="1"/>
<feColorMatrix type="matrix" values="0 0 0 0 0.388235 0 0 0 0 0.176471 0 0 0 0 0.572549 0 0 0 0.25 0"/>
<feBlend mode="normal" in2="effect5_innerShadow_0_1" result="effect6_innerShadow_0_1"/>
<feColorMatrix in="SourceAlpha" type="matrix" values="0 0 0 0 0 0 0 0 0 0 0 0 0 0 0 0 0 0 127 0" result="hardAlpha"/>
<feOffset dx="8" dy="8"/>
<feGaussianBlur stdDeviation="4"/>
<feComposite in2="hardAlpha" operator="arithmetic" k2="-1" k3="1"/>
<feColorMatrix type="matrix" values="0 0 0 0 0.388235 0 0 0 0 0.176471 0 0 0 0 0.572549 0 0 0 0.5 0"/>
<feBlend mode="normal" in2="effect6_innerShadow_0_1" result="effect7_innerShadow_0_1"/>
</filter>
</defs>
</svg>
