<svg width="169" height="197" viewBox="0 0 169 197" fill="none" xmlns="http://www.w3.org/2000/svg">
<path d="M107.246 1.5H107.244H16.2674C12.3492 1.5 8.59247 3.062 5.82344 5.84069C3.05459 8.6192 1.5 12.3866 1.5 16.3137V183.686C1.5 187.613 3.05459 191.381 5.82344 194.159C8.59247 196.938 12.3492 198.5 16.2674 198.5H152.733C156.651 198.5 160.408 196.938 163.177 194.159C165.945 191.381 167.5 187.613 167.5 183.686V61.9608V61.9595C167.498 60.0507 166.741 58.2196 165.394 56.8692L112.326 3.61558C112.325 3.61536 112.325 3.61513 112.325 3.61491C110.979 2.263 109.152 1.50168 107.246 1.5ZM109.745 158.346L109.764 158.365L109.783 158.383C111.145 159.656 112.947 160.35 114.811 160.317C116.674 160.284 118.451 159.527 119.767 158.206C121.083 156.885 121.836 155.105 121.869 153.24C121.901 151.374 121.212 149.568 119.943 148.202L119.925 148.183L119.906 148.164L109.069 137.289C113.391 130.542 115.194 122.462 114.132 114.487C113.016 106.096 108.808 98.4268 102.337 92.9917C95.8654 87.5563 87.5995 84.749 79.167 85.1237C70.7346 85.4984 62.7486 89.028 56.7816 95.0158C50.8147 101.004 47.2992 109.015 46.926 117.473C46.5528 125.93 49.3487 134.222 54.7645 140.715C60.1805 147.209 67.824 151.433 76.1904 152.554C84.1387 153.619 92.1906 151.81 98.9135 147.477L109.745 158.346ZM114.43 54.7549V26.1063L142.979 54.7549H114.43ZM152.733 184.088H16.2674C16.1643 184.088 16.0643 184.047 15.9897 183.972C15.915 183.897 15.8721 183.795 15.8721 183.686V16.3137C15.8721 16.2054 15.915 16.1026 15.9897 16.0276C16.0643 15.9528 16.1643 15.9118 16.2674 15.9118H100.058V61.9608C100.058 63.8702 100.814 65.7025 102.161 67.0543C103.508 68.4062 105.337 69.1667 107.244 69.1667H153.128V183.686C153.128 183.795 153.085 183.897 153.01 183.972C152.936 184.047 152.836 184.088 152.733 184.088ZM61.3605 119.02C61.3605 115.177 62.4959 111.422 64.6227 108.228C66.7494 105.034 69.7716 102.545 73.3065 101.076C76.8414 99.6064 80.7308 99.222 84.4831 99.971C88.2354 100.72 91.6828 102.569 94.3892 105.285C97.0955 108 98.9392 111.461 99.6862 115.23C100.433 118.998 100.05 122.904 98.5846 126.454C97.1195 130.003 94.6388 133.036 91.4569 135.169C88.2752 137.303 84.535 138.441 80.7093 138.441C75.5794 138.441 70.6585 136.396 67.0294 132.755C63.4003 129.113 61.3605 124.172 61.3605 119.02Z" fill="black" stroke="black" stroke-width="3"/>
</svg>
